<svg xmlns="http://www.w3.org/2000/svg" xmlns:xlink="http://www.w3.org/1999/xlink" width="500" zoomAndPan="magnify" viewBox="0 0 375 374.999991" height="500" preserveAspectRatio="xMidYMid meet" version="1.0"><path fill="#ff4400" d="M 187.5 0 C 239.277344 0 286.152344 20.980469 320.082031 54.917969 C 354.011719 88.847656 375 135.722656 375 187.5 C 375 239.277344 354.019531 286.152344 320.082031 320.082031 C 286.152344 354.011719 239.277344 375 187.5 375 C 135.726562 375 88.847656 354.019531 54.917969 320.082031 C 20.980469 286.144531 0 239.277344 0 187.5 C 0 135.722656 20.980469 88.847656 54.910156 54.910156 C 88.847656 20.980469 135.722656 0 187.5 0 Z M 314.152344 60.847656 C 281.742188 28.425781 236.957031 8.378906 187.5 8.378906 C 138.042969 8.378906 93.257812 28.425781 60.847656 60.847656 C 28.4375 93.269531 8.386719 138.042969 8.386719 187.5 C 8.386719 236.957031 28.425781 281.742188 60.847656 314.152344 C 93.269531 346.5625 138.035156 366.613281 187.5 366.613281 C 236.964844 366.613281 281.742188 346.5625 314.152344 314.152344 C 346.5625 281.742188 366.613281 236.957031 366.613281 187.5 C 366.613281 138.042969 346.574219 93.257812 314.152344 60.847656 Z M 314.152344 60.847656 " fill-opacity="1" fill-rule="nonzero"/><path fill="#ff4400" d="M 163.515625 265.183594 L 133.652344 265.183594 C 132.125 265.183594 130.894531 263.953125 130.894531 262.425781 C 130.894531 260.898438 132.125 259.671875 133.652344 259.671875 L 163.515625 259.671875 C 165.042969 259.671875 166.273438 260.898438 166.273438 262.425781 C 166.273438 263.953125 165.042969 265.183594 163.515625 265.183594 Z M 163.515625 265.183594 " fill-opacity="1" fill-rule="evenodd"/><path fill="#ff4400" d="M 241.347656 265.183594 L 211.484375 265.183594 C 209.957031 265.183594 208.726562 263.953125 208.726562 262.425781 C 208.726562 260.898438 209.957031 259.671875 211.484375 259.671875 L 241.347656 259.671875 C 242.875 259.671875 244.105469 260.898438 244.105469 262.425781 C 244.105469 263.953125 242.875 265.183594 241.347656 265.183594 Z M 241.347656 265.183594 " fill-opacity="1" fill-rule="evenodd"/><path fill="#ff4400" d="M 300.996094 265.183594 L 289.335938 265.183594 C 287.808594 265.183594 286.578125 263.953125 286.578125 262.425781 C 286.578125 260.898438 287.808594 259.671875 289.335938 259.671875 L 300.996094 259.671875 C 301.738281 259.671875 302.34375 259.066406 302.34375 258.320312 L 302.34375 200.757812 C 302.34375 197.625 299.796875 195.074219 296.664062 195.074219 L 78.355469 195.074219 C 75.222656 195.074219 72.675781 197.621094 72.675781 200.757812 L 72.675781 258.320312 C 72.675781 259.066406 73.28125 259.671875 74.023438 259.671875 L 85.683594 259.671875 C 87.210938 259.671875 88.441406 260.898438 88.441406 262.425781 C 88.441406 263.953125 87.210938 265.183594 85.683594 265.183594 L 74.023438 265.183594 C 70.246094 265.183594 67.171875 262.109375 67.171875 258.332031 L 67.171875 200.765625 C 67.171875 194.597656 72.199219 189.570312 78.367188 189.570312 L 296.664062 189.570312 C 302.828125 189.570312 307.855469 194.597656 307.855469 200.765625 L 307.855469 258.332031 C 307.847656 262.097656 304.773438 265.183594 300.996094 265.183594 Z M 300.996094 265.183594 " fill-opacity="1" fill-rule="evenodd"/><path fill="#ff4400" d="M 97.59375 228.289062 C 96.066406 228.289062 94.835938 227.058594 94.835938 225.535156 L 94.835938 214.132812 C 94.835938 211.671875 96.839844 209.667969 99.296875 209.667969 L 117.640625 209.667969 C 120.097656 209.667969 122.101562 211.671875 122.101562 214.132812 L 122.101562 225.535156 C 122.101562 227.058594 120.871094 228.289062 119.34375 228.289062 C 117.816406 228.289062 116.589844 227.058594 116.589844 225.535156 L 116.589844 215.171875 L 100.347656 215.171875 L 100.347656 225.535156 C 100.347656 227.050781 99.117188 228.289062 97.59375 228.289062 Z M 97.59375 228.289062 " fill-opacity="1" fill-rule="evenodd"/><path fill="#ff4400" d="M 255.644531 228.289062 C 254.117188 228.289062 252.886719 227.058594 252.886719 225.535156 L 252.886719 214.132812 C 252.886719 211.671875 254.890625 209.667969 257.351562 209.667969 L 275.691406 209.667969 C 278.152344 209.667969 280.15625 211.671875 280.15625 214.132812 L 280.15625 225.535156 C 280.15625 227.058594 278.925781 228.289062 277.398438 228.289062 C 275.871094 228.289062 274.640625 227.058594 274.640625 225.535156 L 274.640625 215.171875 L 258.402344 215.171875 L 258.402344 225.535156 C 258.402344 227.050781 257.171875 228.289062 255.644531 228.289062 Z M 255.644531 228.289062 " fill-opacity="1" fill-rule="evenodd"/><path fill="#ff4400" d="M 109.660156 241.179688 C 97.949219 241.179688 88.421875 250.707031 88.421875 262.417969 C 88.421875 274.125 97.949219 283.644531 109.660156 283.644531 C 121.367188 283.644531 130.894531 274.117188 130.894531 262.417969 C 130.894531 250.707031 121.367188 241.179688 109.660156 241.179688 Z M 109.660156 289.15625 C 94.90625 289.15625 82.917969 277.160156 82.917969 262.417969 C 82.917969 247.664062 94.914062 235.675781 109.660156 235.675781 C 124.410156 235.675781 136.398438 247.671875 136.398438 262.417969 C 136.410156 277.160156 124.402344 289.15625 109.660156 289.15625 Z M 109.660156 289.15625 " fill-opacity="1" fill-rule="evenodd"/><path fill="#ff4400" d="M 109.660156 256.152344 C 106.207031 256.152344 103.390625 258.964844 103.390625 262.417969 C 103.390625 265.855469 106.207031 268.683594 109.660156 268.683594 C 113.109375 268.683594 115.925781 265.867188 115.925781 262.417969 C 115.925781 258.957031 113.117188 256.152344 109.660156 256.152344 Z M 109.660156 274.195312 C 103.164062 274.195312 97.890625 268.910156 97.890625 262.425781 C 97.890625 255.941406 103.175781 250.65625 109.660156 250.65625 C 116.144531 250.65625 121.425781 255.941406 121.425781 262.425781 C 121.4375 268.902344 116.152344 274.195312 109.660156 274.195312 Z M 109.660156 274.195312 " fill-opacity="1" fill-rule="evenodd"/><path fill="#ff4400" d="M 187.5 241.179688 C 175.789062 241.179688 166.261719 250.707031 166.261719 262.417969 C 166.261719 274.125 175.789062 283.644531 187.5 283.644531 C 199.210938 283.644531 208.738281 274.117188 208.738281 262.417969 C 208.738281 250.707031 199.210938 241.179688 187.5 241.179688 Z M 187.5 289.15625 C 172.746094 289.15625 160.757812 277.160156 160.757812 262.417969 C 160.757812 247.664062 172.757812 235.675781 187.5 235.675781 C 202.242188 235.675781 214.242188 247.671875 214.242188 262.417969 C 214.242188 277.160156 202.253906 289.15625 187.5 289.15625 Z M 187.5 289.15625 " fill-opacity="1" fill-rule="evenodd"/><path fill="#ff4400" d="M 187.5 256.152344 C 184.050781 256.152344 181.234375 258.964844 181.234375 262.417969 C 181.234375 265.855469 184.050781 268.683594 187.5 268.683594 C 190.949219 268.683594 193.765625 265.867188 193.765625 262.417969 C 193.765625 258.957031 190.949219 256.152344 187.5 256.152344 Z M 187.5 274.195312 C 181.003906 274.195312 175.730469 268.910156 175.730469 262.425781 C 175.730469 255.941406 181.015625 250.65625 187.5 250.65625 C 193.996094 250.65625 199.269531 255.941406 199.269531 262.425781 C 199.269531 268.902344 193.996094 274.195312 187.5 274.195312 Z M 187.5 274.195312 " fill-opacity="1" fill-rule="evenodd"/><path fill="#ff4400" d="M 265.332031 241.179688 C 253.621094 241.179688 244.09375 250.707031 244.09375 262.417969 C 244.09375 274.125 253.621094 283.644531 265.332031 283.644531 C 277.042969 283.644531 286.570312 274.117188 286.570312 262.417969 C 286.570312 250.707031 277.050781 241.179688 265.332031 241.179688 Z M 265.332031 289.15625 C 250.578125 289.15625 238.589844 277.160156 238.589844 262.417969 C 238.589844 247.664062 250.589844 235.675781 265.332031 235.675781 C 280.085938 235.675781 292.070312 247.671875 292.070312 262.417969 C 292.082031 277.160156 280.085938 289.15625 265.332031 289.15625 Z M 265.332031 289.15625 " fill-opacity="1" fill-rule="evenodd"/><path fill="#ff4400" d="M 265.332031 256.152344 C 261.882812 256.152344 259.066406 258.964844 259.066406 262.417969 C 259.066406 265.855469 261.882812 268.683594 265.332031 268.683594 C 268.78125 268.683594 271.597656 265.867188 271.597656 262.417969 C 271.597656 258.957031 268.792969 256.152344 265.332031 256.152344 Z M 265.332031 274.195312 C 258.835938 274.195312 253.5625 268.910156 253.5625 262.425781 C 253.5625 255.941406 258.847656 250.65625 265.332031 250.65625 C 271.816406 250.65625 277.101562 255.941406 277.101562 262.425781 C 277.109375 268.902344 271.824219 274.195312 265.332031 274.195312 Z M 265.332031 274.195312 " fill-opacity="1" fill-rule="evenodd"/><path fill="#ff4400" d="M 305.089844 228.289062 L 69.910156 228.289062 C 68.382812 228.289062 67.152344 227.058594 67.152344 225.535156 C 67.152344 224.007812 68.382812 222.777344 69.910156 222.777344 L 305.089844 222.777344 C 306.617188 222.777344 307.847656 224.007812 307.847656 225.535156 C 307.847656 227.050781 306.605469 228.289062 305.089844 228.289062 Z M 305.089844 228.289062 " fill-opacity="1" fill-rule="evenodd"/><path fill="#ff4400" d="M 172.539062 211.683594 C 172.359375 211.683594 172.171875 211.664062 172.003906 211.621094 C 171.824219 211.59375 171.65625 211.535156 171.488281 211.464844 C 171.320312 211.394531 171.160156 211.304688 171.011719 211.214844 C 170.851562 211.117188 170.722656 211 170.585938 210.871094 C 170.457031 210.742188 170.347656 210.601562 170.25 210.453125 C 170.148438 210.292969 170.058594 210.136719 170 209.976562 C 169.929688 209.808594 169.871094 209.640625 169.839844 209.460938 C 169.800781 209.28125 169.78125 209.105469 169.78125 208.925781 C 169.78125 208.203125 170.070312 207.488281 170.585938 206.972656 C 170.714844 206.84375 170.851562 206.734375 171.011719 206.636719 C 171.160156 206.535156 171.328125 206.449219 171.488281 206.386719 C 171.65625 206.320312 171.824219 206.269531 172.003906 206.230469 C 172.351562 206.160156 172.71875 206.160156 173.082031 206.230469 C 173.261719 206.269531 173.429688 206.320312 173.597656 206.386719 C 173.769531 206.457031 173.925781 206.546875 174.074219 206.636719 C 174.234375 206.734375 174.363281 206.855469 174.5 206.972656 C 175.007812 207.488281 175.316406 208.203125 175.316406 208.925781 C 175.316406 209.648438 175.015625 210.363281 174.5 210.871094 C 174.371094 211 174.234375 211.105469 174.074219 211.214844 C 173.925781 211.304688 173.769531 211.394531 173.597656 211.464844 C 173.429688 211.535156 173.261719 211.582031 173.082031 211.621094 C 172.894531 211.664062 172.707031 211.683594 172.539062 211.683594 Z M 172.539062 211.683594 " fill-opacity="1" fill-rule="evenodd"/><path fill="#ff4400" d="M 187.5 211.683594 C 187.320312 211.683594 187.144531 211.664062 186.964844 211.621094 C 186.785156 211.59375 186.617188 211.535156 186.449219 211.464844 C 186.28125 211.394531 186.121094 211.304688 185.972656 211.214844 C 185.824219 211.117188 185.6875 211 185.558594 210.871094 C 185.429688 210.742188 185.320312 210.601562 185.210938 210.453125 C 185.121094 210.292969 185.03125 210.136719 184.960938 209.976562 C 184.890625 209.808594 184.84375 209.640625 184.804688 209.460938 C 184.773438 209.28125 184.742188 209.105469 184.742188 208.925781 C 184.742188 208.203125 185.042969 207.488281 185.546875 206.972656 C 185.675781 206.84375 185.816406 206.734375 185.964844 206.636719 C 186.121094 206.535156 186.28125 206.449219 186.4375 206.386719 C 186.609375 206.320312 186.777344 206.269531 186.953125 206.230469 C 187.855469 206.050781 188.800781 206.347656 189.441406 206.984375 C 189.957031 207.5 190.246094 208.210938 190.246094 208.9375 C 190.246094 209.660156 189.957031 210.375 189.441406 210.878906 C 188.9375 211.386719 188.222656 211.683594 187.5 211.683594 Z M 187.5 211.683594 " fill-opacity="1" fill-rule="evenodd"/><path fill="#ff4400" d="M 202.472656 211.683594 C 201.746094 211.683594 201.035156 211.386719 200.519531 210.878906 C 200.003906 210.363281 199.714844 209.660156 199.714844 208.9375 C 199.714844 208.210938 200.003906 207.5 200.519531 206.984375 C 201.164062 206.347656 202.113281 206.050781 203.007812 206.230469 C 203.183594 206.269531 203.355469 206.320312 203.523438 206.386719 C 203.691406 206.457031 203.851562 206.546875 204 206.636719 C 204.15625 206.734375 204.285156 206.855469 204.425781 206.972656 C 204.941406 207.488281 205.226562 208.203125 205.226562 208.925781 C 205.226562 209.105469 205.207031 209.28125 205.167969 209.460938 C 205.128906 209.640625 205.078125 209.808594 205.007812 209.976562 C 204.941406 210.144531 204.851562 210.304688 204.761719 210.453125 C 204.664062 210.601562 204.542969 210.742188 204.414062 210.871094 C 204.285156 211 204.148438 211.105469 203.988281 211.214844 C 203.839844 211.304688 203.679688 211.394531 203.511719 211.464844 C 203.34375 211.535156 203.175781 211.582031 202.996094 211.621094 C 202.820312 211.664062 202.640625 211.683594 202.472656 211.683594 Z M 202.472656 211.683594 " fill-opacity="1" fill-rule="evenodd"/><path fill="#ff4400" d="M 197.703125 157.894531 C 206.089844 165.351562 216.777344 169.425781 228.101562 169.425781 C 240.347656 169.425781 251.847656 164.65625 260.503906 156 C 277.714844 138.777344 278.351562 111.175781 262.398438 93.199219 Z M 228.101562 174.949219 C 214.390625 174.949219 201.5 169.613281 191.804688 159.90625 C 190.722656 158.828125 190.722656 157.089844 191.804688 156.011719 L 260.503906 87.308594 C 261.582031 86.230469 263.320312 86.230469 264.398438 87.308594 C 284.417969 107.320312 284.417969 139.890625 264.398438 159.90625 C 254.703125 169.605469 241.8125 174.949219 228.101562 174.949219 Z M 228.101562 174.949219 " fill-opacity="1" fill-rule="evenodd"/><path fill="#ff4400" d="M 200.953125 91.34375 C 198.136719 91.34375 195.847656 93.636719 195.847656 96.453125 C 195.847656 99.269531 198.136719 101.558594 200.953125 101.558594 C 203.769531 101.558594 206.0625 99.269531 206.0625 96.453125 C 206.0625 93.644531 203.769531 91.34375 200.953125 91.34375 Z M 200.953125 107.082031 C 195.09375 107.082031 190.335938 102.3125 190.335938 96.460938 C 190.335938 90.601562 195.105469 85.84375 200.953125 85.84375 C 206.8125 85.84375 211.574219 90.613281 211.574219 96.460938 C 211.574219 102.320312 206.8125 107.082031 200.953125 107.082031 Z M 200.953125 107.082031 " fill-opacity="1" fill-rule="evenodd"/><path fill="#ff4400" d="M 228.089844 126.375 C 227.386719 126.375 226.671875 126.105469 226.148438 125.570312 L 204.5625 103.988281 C 203.484375 102.90625 203.484375 101.171875 204.5625 100.089844 C 205.644531 99.011719 207.378906 99.011719 208.460938 100.089844 L 230.042969 121.675781 C 231.125 122.757812 231.125 124.492188 230.042969 125.570312 C 229.5 126.097656 228.796875 126.375 228.089844 126.375 Z M 228.089844 126.375 " fill-opacity="1" fill-rule="evenodd"/><path fill="#ff4400" d="M 205.804688 148.664062 C 204.492188 148.664062 203.324219 147.722656 203.097656 146.375 L 195.847656 104.421875 C 195.589844 102.925781 196.601562 101.5 198.097656 101.242188 C 199.597656 100.984375 201.023438 101.996094 201.28125 103.492188 L 208.53125 145.441406 C 208.789062 146.9375 207.777344 148.367188 206.277344 148.625 C 206.121094 148.644531 205.960938 148.664062 205.804688 148.664062 Z M 205.804688 148.664062 " fill-opacity="1" fill-rule="evenodd"/><path fill="#ff4400" d="M 250.390625 104.078125 C 250.230469 104.078125 250.074219 104.054688 249.925781 104.035156 L 207.972656 96.796875 C 206.476562 96.542969 205.464844 95.113281 205.722656 93.617188 C 205.980469 92.117188 207.398438 91.109375 208.90625 91.367188 L 250.855469 98.601562 C 252.351562 98.859375 253.363281 100.289062 253.105469 101.785156 C 252.878906 103.132812 251.707031 104.078125 250.390625 104.078125 Z M 250.390625 104.078125 " fill-opacity="1" fill-rule="evenodd"/><path fill="#ff4400" d="M 262.457031 195.074219 C 260.929688 195.074219 259.699219 193.84375 259.699219 192.320312 L 259.699219 157.964844 C 259.699219 156.4375 260.929688 155.207031 262.457031 155.207031 C 263.984375 155.207031 265.210938 156.4375 265.210938 157.964844 L 265.210938 192.320312 C 265.203125 193.84375 263.964844 195.074219 262.457031 195.074219 Z M 262.457031 195.074219 " fill-opacity="1" fill-rule="evenodd"/><path fill="#ff4400" d="M 244.480469 195.074219 C 242.953125 195.074219 241.722656 193.84375 241.722656 192.320312 L 241.722656 169.347656 C 241.722656 167.820312 242.953125 166.589844 244.480469 166.589844 C 246.007812 166.589844 247.238281 167.820312 247.238281 169.347656 L 247.238281 192.320312 C 247.238281 193.84375 246.007812 195.074219 244.480469 195.074219 Z M 244.480469 195.074219 " fill-opacity="1" fill-rule="evenodd"/><path fill="#ff4400" d="M 98.316406 195.074219 C 96.789062 195.074219 95.558594 193.84375 95.558594 192.320312 L 95.558594 178.367188 C 95.558594 175.066406 98.246094 172.378906 101.546875 172.378906 L 175.917969 172.378906 C 179.222656 172.378906 181.90625 175.066406 181.90625 178.367188 L 181.90625 192.308594 C 181.90625 193.835938 180.679688 195.066406 179.152344 195.066406 C 177.625 195.066406 176.394531 193.835938 176.394531 192.308594 L 176.394531 178.359375 C 176.394531 178.089844 176.175781 177.871094 175.910156 177.871094 L 101.539062 177.871094 C 101.269531 177.871094 101.050781 178.089844 101.050781 178.359375 L 101.050781 192.308594 C 101.070312 193.84375 99.84375 195.074219 98.316406 195.074219 Z M 98.316406 195.074219 " fill-opacity="1" fill-rule="evenodd"/></svg>